<?xml version="1.0" encoding="iso-8859-1"?>
<!-- Generator: Adobe Illustrator 19.0.0, SVG Export Plug-In . SVG Version: 6.00 Build 0)  -->
<svg version="1.1" id="Layer_1" xmlns="http://www.w3.org/2000/svg" xmlns:xlink="http://www.w3.org/1999/xlink" x="0px" y="0px"
	 viewBox="0 0 502 502" style="enable-background:new 0 0 502 502;" xml:space="preserve">
<g>
	<g>
		<g>
			<path d="M391.384,211.651H110.617c-21.697,0-39.349,17.652-39.349,39.349c0,21.697,17.652,39.349,39.349,39.349h280.766
				c21.697,0,39.35-17.652,39.35-39.349C430.733,229.303,413.081,211.651,391.384,211.651z M391.384,270.349H110.617
				c-10.669,0-19.349-8.68-19.349-19.349s8.68-19.349,19.349-19.349h280.767c10.669,0,19.349,8.68,19.349,19.349
				S402.053,270.349,391.384,270.349z"/>
			<path d="M152.73,177.309c0.023,0,0.048,0,0.071,0c10.51-0.019,20.384-4.129,27.803-11.574l70.396-70.642l70.397,70.641
				c7.438,7.465,17.337,11.574,27.873,11.574c10.483,0,20.348-4.076,27.774-11.476c7.446-7.419,11.555-17.294,11.574-27.804
				c0.018-10.51-4.058-20.399-11.477-27.843l-98.269-98.611C271.543,4.218,261.384,0,250.999,0c-10.384,0-20.543,4.218-27.87,11.575
				l-98.269,98.61c-7.419,7.445-11.495,17.334-11.477,27.844s4.128,20.385,11.573,27.803
				C132.385,173.235,142.244,177.309,152.73,177.309z M139.025,124.302l98.269-98.611c3.604-3.617,8.599-5.691,13.705-5.691
				c5.106,0,10.101,2.074,13.704,5.691l98.269,98.611c3.648,3.661,5.652,8.523,5.643,13.691c-0.009,5.168-2.03,10.024-5.691,13.672
				c-3.652,3.639-8.502,5.643-13.657,5.643c-5.181,0-10.048-2.021-13.705-5.691l-77.48-77.75c-1.876-1.882-4.425-2.941-7.083-2.941
				s-5.207,1.058-7.085,2.941l-77.48,77.75c-3.648,3.661-8.503,5.682-13.671,5.691c-0.012,0-0.023,0-0.035,0
				c-5.155,0-10.003-2.004-13.656-5.644c-3.661-3.648-5.682-8.503-5.691-13.671C133.374,132.825,135.377,127.963,139.025,124.302z"
				/>
			<path d="M349.27,324.691c-0.023,0-0.048,0-0.071,0c-10.51,0.019-20.384,4.129-27.803,11.574l-70.396,70.642l-70.397-70.642
				c-15.315-15.368-40.278-15.411-55.647-0.097c-7.446,7.419-11.555,17.294-11.574,27.804c-0.018,10.51,4.058,20.399,11.477,27.843
				l98.269,98.611c7.329,7.356,17.488,11.574,27.872,11.574c10.384,0,20.543-4.218,27.87-11.574l98.269-98.61
				c7.419-7.445,11.495-17.334,11.477-27.844c-0.018-10.511-4.128-20.385-11.573-27.804
				C369.614,328.765,359.754,324.691,349.27,324.691z M362.974,377.698l-98.269,98.611c-3.604,3.617-8.599,5.691-13.705,5.691
				c-5.106,0-10.101-2.074-13.705-5.691l-98.269-98.611c-3.648-3.661-5.652-8.523-5.643-13.691
				c0.009-5.168,2.03-10.023,5.691-13.671c3.653-3.641,8.501-5.644,13.657-5.644c0.011,0,0.023,0,0.036,0
				c5.168,0.009,10.023,2.03,13.671,5.691l77.48,77.75c1.876,1.882,4.425,2.941,7.083,2.941s5.207-1.058,7.083-2.941l77.48-77.75
				c3.648-3.661,8.503-5.682,13.671-5.691c0.012,0,0.023,0,0.035,0c5.156,0,10.004,2.004,13.657,5.644
				c3.661,3.648,5.682,8.503,5.691,13.671C368.626,369.175,366.622,374.037,362.974,377.698z"/>
			<path d="M220.999,76c2.559,0,5.119-0.976,7.072-2.929l7-7c3.905-3.906,3.905-10.238,0-14.143c-3.906-3.905-10.238-3.905-14.143,0
				l-7,7c-3.905,3.906-3.905,10.238,0,14.143C215.88,75.024,218.44,76,220.999,76z"/>
			<path d="M149.999,147c2.559,0,5.119-0.976,7.072-2.929l49-49c3.905-3.906,3.905-10.238,0-14.143
				c-3.906-3.905-10.238-3.905-14.143,0l-49,49c-3.905,3.906-3.905,10.238,0,14.143C144.88,146.024,147.44,147,149.999,147z"/>
		</g>
	</g>
</g>
<g>
</g>
<g>
</g>
<g>
</g>
<g>
</g>
<g>
</g>
<g>
</g>
<g>
</g>
<g>
</g>
<g>
</g>
<g>
</g>
<g>
</g>
<g>
</g>
<g>
</g>
<g>
</g>
<g>
</g>
</svg>
